<?xml version="1.0" encoding="utf-8"?>
<!-- Generator: Adobe Illustrator 19.1.1, SVG Export Plug-In . SVG Version: 6.00 Build 0)  -->
<svg version="1.1"  xmlns="http://www.w3.org/2000/svg" xmlns:xlink="http://www.w3.org/1999/xlink" x="0px" y="0px"
	 viewBox="0 0 48 48" enable-background="new 0 0 48 48" xml:space="preserve">
<path fill="#B0BEC5" d="M13,43V7c0-1.1,0.9-2,2-2h18c1.1,0,2,0.9,2,2v36H13z"/>
<path fill="#90A4AE" d="M33,5h-9v3c-1.7,0-3,1.3-3,3v20c0,1.7,1.3,3,3,3v3h11V7C35,5.9,34.1,5,33,5z"/>
<rect x="13" y="37" fill="#CFD8DC" width="22" height="6"/>
<path fill="#84FFFF" d="M24,32L24,32c-0.5,0-1-0.5-1-1V11c0-0.6,0.5-1,1-1l0,0c0.5,0,1,0.4,1,1v20C25,31.5,24.5,32,24,32z"/>
<g>
	<path fill="#546E7A" d="M25,43v-2c0-0.6-0.5-1-1-1s-1,0.4-1,1v2H25z"/>
</g>
</svg>
