<?xml version="1.0" encoding="utf-8"?>
<!-- Generator: Adobe Illustrator 19.1.1, SVG Export Plug-In . SVG Version: 6.00 Build 0)  -->
<svg version="1.1"  xmlns="http://www.w3.org/2000/svg" xmlns:xlink="http://www.w3.org/1999/xlink" x="0px" y="0px"
	 viewBox="0 2 48 48" enable-background="new 0 2 48 48" xml:space="preserve">
<path fill="#B0BEC5" d="M13,48V6c0-1.1,0.9-2,2-2h18c1.1,0,2,0.9,2,2v42H13z"/>
<g>
	<path fill="#90A4AE" d="M33,4h-9v44h11V6C35,4.9,34.1,4,33,4z"/>
	<path fill="#90A4AE" d="M24,7c-1.7,0-3,1.3-3,3v26c0,1.7,1.3,3,3,3s3-1.3,3-3V10C27,8.3,25.7,7,24,7L24,7z"/>
</g>
<rect x="13" y="42" fill="#CFD8DC" width="22" height="6"/>
<path fill="#76FF03" d="M24,37L24,37c-0.5,0-1-0.5-1-1V10c0-0.6,0.5-1,1-1l0,0c0.5,0,1,0.4,1,1v26C25,36.5,24.5,37,24,37z"/>
</svg>
