<?xml version="1.0" encoding="utf-8"?>
<!-- Generator: Adobe Illustrator 15.0.0, SVG Export Plug-In . SVG Version: 6.00 Build 0)  -->
<!DOCTYPE svg PUBLIC "-//W3C//DTD SVG 1.1//EN" "http://www.w3.org/Graphics/SVG/1.1/DTD/svg11.dtd">
<svg version="1.1"  xmlns="http://www.w3.org/2000/svg" xmlns:xlink="http://www.w3.org/1999/xlink" x="0px" y="0px"
	 width="48px" height="48px" viewBox="0 0 48 48" enable-background="new 0 0 48 48" xml:space="preserve">
<g>
	<path fill="#FF3D00" d="M19,19v12c0,2.209,1.791,4,4,4s4-1.791,4-4V19H19z"/>
	<circle fill="#FF3D00" cx="23" cy="38" r="8"/>
</g>
<g>
	<rect x="29" y="19" fill="#1565C0" width="4" height="2"/>
	<rect x="29" y="23" fill="#1565C0" width="4" height="2"/>
	<rect x="29" y="27" fill="#1565C0" width="4" height="2"/>
</g>
<path fill="#CFD8DC" d="M27,19V6c0-2.209-1.791-4-4-4s-4,1.791-4,4v13H27z"/>
<g>
	<rect x="29" y="15" fill="#FF3D00" width="4" height="2"/>
	<rect x="29" y="11" fill="#FF3D00" width="4" height="2"/>
	<rect x="29" y="7" fill="#FF3D00" width="4" height="2"/>
</g>
</svg>
