<?xml version="1.0" encoding="utf-8"?>
<!-- Generator: Adobe Illustrator 19.1.1, SVG Export Plug-In . SVG Version: 6.00 Build 0)  -->
<svg version="1.1"  xmlns="http://www.w3.org/2000/svg" xmlns:xlink="http://www.w3.org/1999/xlink" x="0px" y="0px"
	 viewBox="0 0 48 48" enable-background="new 0 0 48 48" xml:space="preserve">
<path fill="#B0BEC5" d="M26,26h-4v-6h4V26z M34,20h-2v6h2V20z M16,20h-2v6h2V20z"/>
<path fill="#90A4AE" d="M26,22h-4v-2h4V22z M34,20h-2v2h2V20z M16,20h-2v2h2V20z"/>
<path fill="#37474F" d="M37,20H11c-0.6,0-1-0.5-1-1V5c0-0.6,0.4-1,1-1h26c0.5,0,1,0.4,1,1v14C38,19.5,37.5,20,37,20z M38,41V27
	c0-0.5-0.5-1-1-1H11c-0.6,0-1,0.5-1,1v14c0,0.5,0.4,1,1,1h26C37.5,42,38,41.5,38,41z"/>
<rect x="10" y="39" fill="#B0BEC5" width="28" height="5"/>
</svg>
